#!OML:ASF F:\Work\Patient Classification 1\justin\Session 1\justin.ASF
:FULLY-SPECIFIED
:DEGREES
2916
root 1.7094 16.8519 -0.035666 0.207079 24.2125 1.66362
lowerback 14.5551 -3.62845 -3.25986
upperback 0.0212321 -5.00739 4.26489
thorax -7.46528 -2.22885 7.46205
lowerneck -12.1408 -8.38917 -17.2529
upperneck 12.0882 -10.5158 14.6906
head 7.42994 -4.78931 6.52019
rclavicle -9.74045e-015 3.18055e-015
rhumerus -18.2305 1.96586 -72.7492
rradius 137.482
rwrist -7.37449
rhand -17.0564 30.5581
rfingers 7.12502
rthumb 9.18092 0.777911
lclavicle -9.74045e-015 3.18055e-015
lhumerus -8.49276 -27.097 99.0306
lradius 126.458
lwrist 6.37549
lhand -16.8635 6.87454
lfingers 7.12502
lthumb 9.36708 36.6464
rfemur -33.9342 8.03823 1.95681
rtibia 34.2296
rfoot 1.97689 6.13189
rtoes -16.4084
lfemur 4.17841 12.8671 -17.117
ltibia 40.7428
lfoot -27.791 9.22499
ltoes -32.667
2917
root 1.71148 16.8612 -0.0261138 0.184919 23.8376 1.47245
lowerback 14.4947 -3.58201 -3.1706
upperback -0.0302704 -4.92386 4.33909
thorax -7.50031 -2.18757 7.47474
lowerneck -12.1603 -8.30142 -17.2043
upperneck 12.3219 -10.4135 14.6335
head 7.48469 -4.7417 6.50989
rclavicle 3.57812e-015 -7.95139e-015
rhumerus -18.3656 2.07921 -72.856
rradius 137.381
rwrist -7.39168
rhand -17.6863 31.7954
rfingers 7.12502
rthumb 8.57306 1.98949
lclavicle 3.57812e-015 -7.95139e-015
lhumerus -8.70204 -26.987 99.1378
lradius 126.419
lwrist 6.47167
lhand -16.889 6.72648
lfingers 7.12502
lthumb 9.34244 36.4995
rfemur -33.9879 8.4026 2.16941
rtibia 34.0123
rfoot 2.02766 6.12255
rtoes -16.6066
lfemur 4.04561 13.0996 -16.9506
ltibia 40.8728
lfoot -27.4424 9.70869
ltoes -33.857
2918
root 1.72308 16.8714 -0.0169561 0.259766 23.6758 1.62287
lowerback 14.3568 -3.58943 -3.27192
upperback -0.0409122 -4.95223 4.31308
thorax -7.4241 -2.20206 7.49638
lowerneck -12.0568 -8.19738 -17.2356
upperneck 12.4515 -10.2965 14.655
head 7.49105 -4.69028 6.54408
rclavicle 2.66371e-014 -3.18055e-015
rhumerus -18.4703 2.13101 -72.8965
rradius 137.269
rwrist -7.34668
rhand -18.024 32.3994
rfingers 7.12502
rthumb 8.24717 2.5804
lclavicle 2.66371e-014 -3.18055e-015
lhumerus -8.84136 -26.9974 99.2074
lradius 126.478
lwrist 6.24652
lhand -17.2116 6.71172
lfingers 7.12502
lthumb 9.03114 36.4984
rfemur -33.911 8.31307 2.05955
rtibia 33.8465
rfoot 2.12714 6.36114
rtoes -16.0422
lfemur 3.98953 13.2554 -17.1323
ltibia 40.9231
lfoot -27.0731 9.95991
ltoes -34.5733
2919
root 1.73974 16.8794 -0.0103453 0.287287 23.7173 1.85412
lowerback 14.294 -3.66313 -3.34039
upperback 0.0149087 -5.06539 4.26352
thorax -7.31043 -2.26235 7.49127
lowerneck -12.0341 -8.14116 -17.1828
upperneck 12.4404 -10.2117 14.5457
head 7.4594 -4.65629 6.50932
rclavicle 1.19271e-015 6.36111e-015
rhumerus -18.5434 2.12982 -72.8625
rradius 137.244
rwrist -7.32135
rhand -17.6682 31.3081
rfingers 7.12502
rthumb 8.5905 1.50286
lclavicle 1.19271e-015 6.36111e-015
lhumerus -8.75746 -27.0329 99.197
lradius 126.474
lwrist 5.82256
lhand -16.759 7.51668
lfingers 7.12502
lthumb 9.46788 37.284
rfemur -33.653 7.94021 1.87965
rtibia 33.7146
rfoot 2.21957 6.6409
rtoes -14.7806
lfemur 3.96309 13.353 -17.4028
ltibia 40.9502
lfoot -26.3711 10.7173
ltoes -36.6047
2920
root 1.74325 16.8792 0.00102082 0.174561 23.6216 1.72207
lowerback 14.2654 -3.6842 -3.26471
upperback 0.0950399 -5.0741 4.34418
thorax -7.20563 -2.27426 7.52897
lowerneck -12.0548 -8.12306 -17.1133
upperneck 12.3505 -10.1666 14.4265
head 7.41552 -4.63926 6.46049
rclavicle 5.20816e-014 -1.11319e-014
rhumerus -18.5786 2.12472 -72.8009
rradius 137.236
rwrist -7.28863
rhand -17.4664 30.1064
rfingers 7.12502
rthumb 8.7853 0.309223
lclavicle 5.20816e-014 -1.11319e-014
lhumerus -8.68555 -27.0103 99.2272
lradius 126.41
lwrist 5.61711
lhand -14.2788 9.3109
lfingers 7.12502
lthumb 11.8602 38.955
rfemur -33.5229 8.09125 2.00761
rtibia 33.6247
rfoot 2.28444 6.54976
rtoes -13.2784
lfemur 4.37912 13.0328 -17.183
ltibia 41.0355
lfoot -27.2925 8.63443
ltoes -32.4167
2921
root 1.72836 16.8872 0.0184754 0.0396792 23.1982 1.22459
lowerback 14.1116 -3.57763 -3.19476
upperback 0.216172 -4.90164 4.58191
thorax -6.99889 -2.20041 7.6941
lowerneck -12.2223 -8.11768 -17.0545
upperneck 12.3075 -10.1222 14.3319
head 7.41485 -4.61539 6.41897
rclavicle 1.37161e-014 -1.59028e-014
rhumerus -18.3447 2.13641 -72.7546
rradius 137.068
rwrist -7.22703
rhand -17.259 26.953
rfingers 7.12502
rthumb 8.98538 -2.83565
lclavicle 1.37161e-014 -1.59028e-014
lhumerus -8.56674 -26.9067 99.2141
lradius 126.529
lwrist 5.97585
lhand -16.4652 7.1998
lfingers 7.12502
lthumb 9.75138 36.954
rfemur -33.728 8.87741 2.49614
rtibia 33.5567
rfoot 2.22517 6.16015
rtoes -13.7283
lfemur 4.23567 13.4513 -16.518
ltibia 41.2302
lfoot -27.1734 8.5165
ltoes -32.9466
2922
root 1.72984 16.8868 0.0158878 0.143096 22.9696 1.29324
lowerback 14.1109 -3.56806 -3.28404
upperback 0.286859 -4.90175 4.61429
thorax -6.91183 -2.20248 7.77544
lowerneck -12.5508 -8.12593 -17.0157
upperneck 12.4286 -10.0795 14.2189
head 7.4957 -4.58846 6.37253
rclavicle 3.71727e-014 -4.92986e-014
rhumerus -18.033 2.22181 -72.7767
rradius 136.936
rwrist -7.21829
rhand -17.8476 29.931
rfingers 7.12502
rthumb 8.4174 0.118771
lclavicle 3.71727e-014 -4.92986e-014
lhumerus -8.20453 -26.0348 99.006
lradius 125.988
lwrist 7.78058
lhand -14.6892 3.5882
lfingers 7.12502
lthumb 11.4645 33.2547
rfemur -33.9187 8.694 2.48875
rtibia 33.5514
rfoot 2.33803 6.55247
rtoes -13.7454
lfemur 4.12018 13.637 -16.5638
ltibia 41.4574
lfoot -27.2609 8.11063
ltoes -32.4937
2923
root 1.72923 16.8833 0.0170888 0.146797 22.8287 1.26792
lowerback 14.2296 -3.61807 -3.28746
upperback 0.325831 -4.96747 4.64771
thorax -6.92282 -2.2341 7.83458
lowerneck -12.8475 -8.09935 -16.9436
upperneck 12.5968 -10.0042 14.1029
head 7.57885 -4.54627 6.32588
rclavicle -1.06151e-013 9.54166e-015
rhumerus -17.8039 2.33657 -72.8616
rradius 136.877
rwrist -7.30117
rhand -22.7671 41.6455
rfingers 7.12502
rthumb 3.66803 11.6973
lclavicle -1.06151e-013 9.54166e-015
lhumerus -8.13654 -25.854 98.8853
lradius 126.044
lwrist 7.79396
lhand -14.6721 4.12664
lfingers 7.12502
lthumb 11.481 33.7922
rfemur -33.9945 8.53959 2.57616
rtibia 33.5759
rfoot 2.31242 7.06836
rtoes -14.444
lfemur 4.04877 13.8574 -16.4513
ltibia 41.6977
lfoot -27.1835 7.98149
ltoes -32.8923
2924
root 1.73102 16.882 0.0193362 0.1612 22.8016 1.30427
lowerback 14.4244 -3.69483 -3.26948
upperback 0.275613 -5.06952 4.6246
thorax -7.07386 -2.27658 7.84061
lowerneck -12.9142 -8.00082 -16.8126
upperneck 12.7109 -9.87054 13.9724
head 7.5906 -4.48382 6.27777
rclavicle -5.70512e-014 0
rhumerus -17.8393 2.36721 -72.9382
rradius 136.885
rwrist -7.51192
rhand -22.6556 42.1766
rfingers 7.12502
rthumb 3.77572 12.2303
lclavicle -5.70512e-014 0
lhumerus -8.49562 -26.463 98.9543
lradius 126.762
lwrist 5.91605
lhand -17.538 6.70227
lfingers 7.12502
lthumb 8.71617 36.5023
rfemur -34.0142 8.19554 2.63602
rtibia 33.6589
rfoot 2.31863 7.58872
rtoes -15.5794
lfemur 4.01503 13.9577 -16.4171
ltibia 41.8801
lfoot -27.2016 7.77105
ltoes -32.7645
2925
root 1.72783 16.8763 0.027743 0.14937 22.6015 1.24683
lowerback 14.4737 -3.67941 -3.28627
upperback 0.271163 -5.05055 4.64852
thorax -7.10551 -2.26472 7.87849
lowerneck -12.887 -7.93994 -16.577
upperneck 12.6956 -9.78237 13.6687
head 7.53644 -4.45452 6.14558
rclavicle 4.8901e-014 -3.65764e-014
rhumerus -17.9612 2.30334 -72.9466
rradius 136.904
rwrist -7.68599
rhand -21.7635 41.7707
rfingers 7.12502
rthumb 4.63716 11.8414
lclavicle 4.8901e-014 -3.65764e-014
lhumerus -8.6653 -26.565 98.9711
lradius 126.891
lwrist 5.11606
lhand -19.8739 5.96737
lfingers 7.12502
lthumb 6.46158 35.8488
rfemur -34.1812 8.14132 2.76043
rtibia 33.8324
rfoot 2.53467 7.64972
rtoes -13.8857
lfemur 3.99843 14.1698 -16.2536
ltibia 42.0646
lfoot -27.2967 7.40715
ltoes -32.1721
2926
root 1.72305 16.8598 0.0421553 0.126689 22.3214 1.19399
lowerback 14.3378 -3.63645 -3.36774
upperback 0.395265 -5.00492 4.6771
thorax -6.89297 -2.25226 7.9252
lowerneck -12.9711 -7.91102 -16.3355
upperneck 12.6063 -9.7219 13.4013
head 7.48474 -4.43099 6.01795
rclavicle 5.28767e-014 -1.27222e-014
rhumerus -17.8404 2.2468 -72.979
rradius 136.867
rwrist -7.73215
rhand -20.4106 38.9191
rfingers 7.12502
rthumb 5.94345 9.02247
lclavicle 5.28767e-014 -1.27222e-014
lhumerus -8.40908 -26.468 98.7625
lradius 127.072
lwrist 5.20883
lhand -19.0482 7.84355
lfingers 7.12502
lthumb 7.25865 37.6991
rfemur -34.4068 8.17614 2.87607
rtibia 34.1209
rfoot 2.14646 8.08355
rtoes -14.5567
lfemur 4.00329 14.4262 -16.1025
ltibia 42.2529
lfoot -27.3829 7.21161
ltoes -32.068
2927
root 1.72094 16.8411 0.0584213 0.124453 22.1337 1.21758
lowerback 14.1759 -3.64274 -3.48696
upperback 0.518068 -5.03242 4.6809
thorax -6.65536 -2.27631 7.9769
lowerneck -13.0412 -7.79949 -16.2916
upperneck 12.532 -9.56547 13.4424
head 7.44805 -4.34853 6.04432
rclavicle -6.89783e-014 0
rhumerus -17.8474 2.23615 -73.0273
rradius 136.983
rwrist -7.81451
rhand -18.8719 34.75
rfingers 7.12502
rthumb 7.4288 4.90043
lclavicle -6.89783e-014 0
lhumerus -8.06061 -26.2067 98.502
lradius 127.23
lwrist 5.64105
lhand -15.8883 9.85372
lfingers 7.12502
lthumb 10.3079 39.5811
rfemur -34.5858 7.87668 2.99365
rtibia 34.4875
rfoot 1.27224 8.99296
rtoes -18.4097
lfemur 3.98617 14.6339 -16.0574
ltibia 42.4353
lfoot -27.4451 7.31314
ltoes -32.5839
